<svg width="33" height="34" viewBox="0 0 33 34" fill="none" xmlns="http://www.w3.org/2000/svg">
<path fill-rule="evenodd" clip-rule="evenodd" d="M16.4817 0.5C7.64169 0.5 0.481689 8.07051 0.481689 17.4173C0.481689 24.9033 5.06169 31.2261 11.4217 33.4677C12.2217 33.6157 12.5217 33.1082 12.5217 32.6641C12.5217 32.2623 12.5017 30.9301 12.5017 29.5133C8.48169 30.2957 7.44169 28.4771 7.12169 27.5255C6.94169 27.0391 6.16169 25.5377 5.48169 25.1359C4.92169 24.8187 4.12169 24.0363 5.46169 24.0151C6.72169 23.994 7.62169 25.2416 7.92169 25.7491C9.36169 28.3079 11.6617 27.5889 12.5817 27.1448C12.7217 26.0452 13.1417 25.3051 13.6017 24.8821C10.0417 24.4592 6.32169 23.0001 6.32169 16.5292C6.32169 14.6894 6.94169 13.1669 7.96169 11.9826C7.80169 11.5597 7.24169 9.82569 8.12169 7.49955C8.12169 7.49955 9.46169 7.05547 12.5217 9.23358C13.8017 8.85294 15.1617 8.66262 16.5217 8.66262C17.8817 8.66262 19.2417 8.85294 20.5217 9.23358C23.5817 7.03433 24.9217 7.49955 24.9217 7.49955C25.8017 9.82569 25.2417 11.5597 25.0817 11.9826C26.1017 13.1669 26.7217 14.6683 26.7217 16.5292C26.7217 23.0212 22.9817 24.4592 19.4217 24.8821C20.0017 25.4108 20.5017 26.4258 20.5017 28.0118C20.5017 30.2745 20.4817 32.0931 20.4817 32.6641C20.4817 33.1082 20.7817 33.6369 21.5817 33.4677C24.7579 32.3338 27.5179 30.1754 29.4732 27.2962C31.4286 24.417 32.4807 20.9619 32.4817 17.4173C32.4817 8.07051 25.3217 0.5 16.4817 0.5Z" fill="#5D5FEF"/>
</svg>
