<svg width="34" height="34" viewBox="0 0 34 34" fill="none" xmlns="http://www.w3.org/2000/svg">
<path d="M17.2584 0.5C8.27815 0.5 0.998413 7.77974 0.998413 16.76C0.998413 25.7403 8.27815 33.02 17.2584 33.02C26.2387 33.02 33.5184 25.7403 33.5184 16.76C33.5184 7.77974 26.2387 0.5 17.2584 0.5ZM13.2781 23.4994H9.98545V12.9033H13.2781V23.4994ZM11.6115 11.6025C10.5715 11.6025 9.89907 10.8658 9.89907 9.95451C9.89907 9.02464 10.5918 8.30988 11.6538 8.30988C12.7158 8.30988 13.3662 9.02464 13.3865 9.95451C13.3865 10.8658 12.7158 11.6025 11.6115 11.6025ZM25.3037 23.4994H22.0111V17.6272C22.0111 16.2603 21.5334 15.3322 20.3427 15.3322C19.4332 15.3322 18.8929 15.9606 18.6541 16.5652C18.566 16.7803 18.544 17.0852 18.544 17.3884V23.4977H15.2496V16.2824C15.2496 14.9595 15.2073 13.8535 15.1632 12.9016H18.024L18.1747 14.3735H18.2408C18.6744 13.6825 19.7364 12.6628 21.5131 12.6628C23.6794 12.6628 25.3037 14.1144 25.3037 17.2342V23.4994Z" fill="#5D5FEF"/>
</svg>
