<svg width="77" height="72" viewBox="0 0 77 72" fill="none" xmlns="http://www.w3.org/2000/svg">
<path d="M4.55855 0H6.69308L8.95348 0.000994543L11.0716 0H24.2071L26.4555 0.000994543L28.5856 0H35.2629L37.3252 0.00198909L39.5943 0.000994543L41.7212 0L44.0024 0.000994543L46.0997 0H50.5056L52.7594 0.000994543L54.8567 0H72.3434L73.4041 0.00895544C73.421 0.00930122 73.4373 0.0139837 73.4506 0.0223597C73.464 0.0307358 73.4737 0.0423933 73.4785 0.0557248C73.5034 0.126708 73.5066 0.200676 73.4884 0.277629L73.2957 2.32154L73.114 4.40725L72.9225 6.34767L72.7309 8.36273L72.5426 10.3022L72.3347 12.3749L72.1705 14.3064L71.7731 18.4131L71.5848 20.2202L71.39 22.2044L71.1984 24.2842L71.0255 26.2743L70.8153 28.2894L70.6358 30.2756L70.4574 32.1384L70.268 34.2599L70.0764 36.2501C70.0327 36.9089 69.9932 37.5218 69.898 38.2124C69.8068 38.8831 69.7386 39.5558 69.6933 40.2305L69.5018 42.1709L69.3102 44.2606L69.1362 46.0806L68.9271 48.1414L68.7585 50.1276L68.5615 52.1337L68.3798 54.112L68.1795 56.1519L67.9966 58.1172L67.3607 64.6291C67.3593 64.6436 67.3532 64.6575 67.343 64.6689C67.3329 64.6803 67.3192 64.6886 67.3037 64.6927L65.7756 65.1117L61.4245 66.2232L59.2582 66.7745L57.0186 67.3427L52.6401 68.4452L50.5012 69.0134L46.0559 70.1399L43.8557 70.6842L41.6894 71.2524C40.9692 71.401 40.2591 71.5821 39.5593 71.7957C39.1028 71.9141 38.6256 72.0783 38.1483 71.9579C36.4597 71.5333 34.7659 71.1034 33.0671 70.6682L30.9052 70.1279L26.4435 68.9776L24.2936 68.4412L19.9928 67.3427L17.6711 66.7496L15.6143 66.2142L11.2084 65.1117L9.746 64.7315C9.71309 64.7231 9.6837 64.7057 9.66165 64.6815C9.6396 64.6574 9.62589 64.6277 9.6223 64.5962L9.5621 64.0877L9.3793 62.0727L8.98742 58.0674L8.82323 56.127L8.63604 54.1766L8.44011 52.0969L8.22556 50.1276L8.05042 48.1315L7.86433 46.19L7.67387 44.2108L7.48231 42.1958L7.29075 40.33C7.19989 38.9776 7.04117 37.6323 6.93499 36.2809L6.72482 34.1952L6.52451 32.2449L6.36031 30.2547L6.14139 28.165L5.97719 26.2743L5.78563 24.2842L5.59079 22.2512L5.40798 20.3416L5.21095 18.3385L4.74573 13.2138L4.63627 12.3431L4.44471 10.3449L4.25315 8.32392L4.06159 6.34767L3.8974 4.38237L3.70584 2.39219L3.51428 0.377138L3.50005 0.0607005C3.49975 0.0541245 3.50086 0.0475612 3.50332 0.0414079C3.50577 0.0352546 3.50951 0.0296373 3.51432 0.0248955C3.51912 0.0201536 3.5249 0.0163859 3.53129 0.0138173C3.53767 0.0112487 3.54455 0.00993265 3.55149 0.00994998L4.55855 0ZM66.0066 11.2863C66.2124 9.42847 66.3383 7.57362 66.5758 5.71181C66.5775 5.69869 66.5766 5.68538 66.5729 5.67278C66.5693 5.66017 66.563 5.64855 66.5547 5.63867C66.5463 5.6288 66.5359 5.6209 66.5243 5.6155C66.5127 5.6101 66.5 5.60731 66.4872 5.60733L38.5807 5.60633C38.5644 5.60633 38.5488 5.61168 38.5374 5.6212C38.5259 5.63071 38.5194 5.64362 38.5194 5.65708L38.5183 66.3267C38.5183 66.3398 38.5214 66.3528 38.5273 66.3647C38.5332 66.3766 38.5418 66.3871 38.5524 66.3953C38.563 66.4034 38.5753 66.4091 38.5884 66.4119C38.6014 66.4147 38.6149 66.4145 38.6278 66.4113C43.358 65.2324 48.081 64.0599 52.7966 62.8936C55.5737 62.207 58.3552 61.5572 61.118 60.8218C61.1358 60.8172 61.1517 60.8077 61.1636 60.7948C61.1755 60.7819 61.1829 60.766 61.1848 60.7492C61.3782 58.9043 61.5646 57.0571 61.7441 55.2075C62.9468 42.832 64.1457 30.4557 65.3411 18.0788C65.56 15.8179 65.7559 13.5442 66.0066 11.2863ZM33.0736 13.3173H28.5856L28.1938 13.3312C28.1797 13.3317 28.1664 13.3383 28.1567 13.3497C28.1471 13.361 28.1419 13.3762 28.1423 13.3919C28.2146 15.9692 28.1314 18.4947 28.1675 21.0441C28.1828 22.1799 28.1894 23.3159 28.1872 24.4523C28.1719 32.5434 28.2025 40.6404 28.1336 48.7265C28.1335 48.7362 28.1311 48.7458 28.1264 48.7546C28.1217 48.7633 28.115 48.7709 28.1066 48.7769C28.0983 48.7828 28.0886 48.787 28.0783 48.7889C28.0679 48.7909 28.0573 48.7907 28.0471 48.7882L26.5606 48.436L22.1317 47.3453L19.9217 46.7911L17.7915 46.2697L14.7955 45.5164C14.7783 45.512 14.7602 45.5116 14.7427 45.515C14.7251 45.5184 14.7087 45.5256 14.6945 45.536C14.6804 45.5464 14.669 45.5598 14.6613 45.5751C14.6535 45.5903 14.6496 45.607 14.6499 45.6238L14.6609 46.2338V48.0917L14.6882 50.2062L14.6609 52.1964V52.7129C14.6609 52.7276 14.6655 52.7422 14.6741 52.7552C14.6828 52.7681 14.6952 52.7789 14.7101 52.7865C14.905 52.884 15.1151 52.9431 15.3406 52.9636L17.5846 53.5109L19.7465 54.0503L24.1524 55.1279L26.3942 55.6852L28.5736 56.2265C28.6334 56.2557 28.7104 56.2736 28.8046 56.2802L30.7475 56.7698L32.9368 57.3171L35.1096 57.8614L35.7084 58.0157C35.7149 58.0174 35.7218 58.0176 35.7284 58.0163C35.7351 58.0151 35.7414 58.0124 35.7468 58.0084C35.7522 58.0044 35.7566 57.9994 35.7596 57.9936C35.7626 57.9877 35.7642 57.9813 35.7642 57.9749L35.7784 56.2265C35.889 55.0613 35.7653 53.7716 35.7511 52.5944L35.7784 52.2213L35.7598 50.0818V48.3156C35.8087 47.5779 35.8087 46.8398 35.7598 46.1015L35.7719 44.3302C35.8135 43.5978 35.8095 42.8615 35.7598 42.1211L35.7784 40.2802C35.8076 39.5651 35.8 38.8506 35.7555 38.1368L35.7784 36.2999C35.8135 35.586 35.8073 34.8729 35.7598 34.1604L35.7708 32.415C35.8233 31.672 35.8182 30.9257 35.7555 30.1761L35.7784 28.364L35.7664 26.2077L35.7697 24.4533C35.8339 23.713 35.8306 22.9683 35.7598 22.2193L35.7708 20.4481C35.8153 19.7144 35.8102 18.9767 35.7555 18.235L35.7763 16.4966L35.7719 13.3521C35.7719 13.3389 35.7659 13.3263 35.7552 13.3169C35.7445 13.3076 35.7301 13.3024 35.715 13.3024L33.0736 13.3173Z" fill="#E8C931"/>
<path d="M66.503 5.68177C66.2655 7.54358 66.1396 9.39843 65.9338 11.2563C65.6831 13.5141 65.4872 15.7879 65.2683 18.0487C64.0729 30.4257 62.874 42.8019 61.6713 55.1775C61.4918 57.0271 61.3054 58.8743 61.112 60.7192C61.1101 60.7359 61.1027 60.7518 61.0908 60.7648C61.0789 60.7777 61.063 60.7871 61.0452 60.7918C58.2824 61.5272 55.5009 62.177 52.7238 62.8636C48.0082 64.0298 43.2852 65.2024 38.555 66.3812C38.5421 66.3844 38.5286 66.3847 38.5156 66.3819C38.5025 66.3791 38.4902 66.3734 38.4796 66.3652C38.469 66.357 38.4604 66.3466 38.4545 66.3347C38.4486 66.3228 38.4455 66.3098 38.4455 66.2966L38.4466 5.62704C38.4466 5.61358 38.4531 5.60067 38.4645 5.59116C38.476 5.58164 38.4916 5.57629 38.5079 5.57629L66.4143 5.57729C66.4272 5.57727 66.4399 5.58006 66.4515 5.58546C66.4631 5.59086 66.4735 5.59876 66.4819 5.60864C66.4902 5.61851 66.4965 5.63013 66.5001 5.64274C66.5037 5.65535 66.5047 5.66865 66.503 5.68177ZM43.8924 40.1218L46.0543 39.8233L48.2709 39.4999L50.378 39.2014L52.6768 38.8531L53.5459 38.7685C53.5526 38.7679 53.5593 38.7686 53.5657 38.7706C53.572 38.7726 53.5778 38.7758 53.5826 38.7799C53.5874 38.7841 53.5911 38.7892 53.5935 38.7948C53.5958 38.8003 53.5968 38.8063 53.5963 38.8123L53.4747 40.1507L53.2285 42.2901L53.0095 44.0464L52.7632 46.1461L52.552 47.7203C52.55 47.7354 52.5435 47.7496 52.5332 47.7611C52.5229 47.7726 52.5092 47.7809 52.494 47.785L50.2686 48.3811L48.1932 48.9094L45.9995 49.4587L41.5116 50.6031L41.2313 50.6747C41.2165 50.6784 41.2034 50.6874 41.1939 50.7005C41.1844 50.7137 41.1791 50.7301 41.1788 50.7474L41.1602 52.0917C41.2138 53.5107 41.1208 54.3247 41.147 55.68C41.1624 56.433 41.1521 57.1859 41.1164 57.9389C41.1162 57.9456 41.1177 57.9522 41.1207 57.9582C41.1237 57.9643 41.1282 57.9696 41.1337 57.9738C41.1392 57.978 41.1457 57.9808 41.1526 57.9822C41.1595 57.9836 41.1666 57.9834 41.1733 57.9817L41.6484 57.8593L43.8847 57.299L46.1681 56.7189C47.6094 56.3952 49.04 56.0373 50.4601 55.6452L52.7589 55.073L57.0005 54.0113L59.1033 53.4689C59.1188 53.4648 59.1326 53.4564 59.143 53.4449C59.1533 53.4334 59.1597 53.4192 59.1613 53.4043L59.3223 52.0917L59.7054 48.186L59.9057 46.2207L60.1159 44.2305L60.3348 42.1657L60.5252 40.2074L60.7267 38.1605C60.8266 37.525 60.8876 36.8864 60.9095 36.2449L61.1142 34.2876L61.3265 32.2536L61.4524 30.8277C61.453 30.8215 61.452 30.8154 61.4495 30.8096C61.4471 30.8039 61.4432 30.7987 61.4381 30.7945C61.433 30.7903 61.427 30.7871 61.4204 30.7853C61.4137 30.7835 61.4067 30.783 61.3999 30.7839L59.1351 31.0993L56.9732 31.3899L52.575 31.9969L50.401 32.2895C49.9362 32.3399 49.4724 32.3979 49.0098 32.4636C48.8054 32.4928 48.7354 32.4022 48.7996 32.1919C48.7806 31.0595 48.7708 29.9281 48.77 28.7977C48.7689 28.1977 48.8696 27.123 48.7591 26.2692V24.2292C48.9091 22.9187 48.6934 21.7734 48.827 20.3086C48.828 20.2949 48.8347 20.2822 48.8457 20.2728C48.8566 20.2634 48.871 20.2581 48.8861 20.2578L50.4601 20.2449L52.2663 20.228L54.7971 20.2419L57.0005 20.22L59.1745 20.2439L61.4338 20.2449C61.7337 20.2761 62.0282 20.2588 62.3172 20.1932C62.3331 20.1897 62.3474 20.1818 62.358 20.1707C62.3686 20.1597 62.375 20.1459 62.3763 20.1315L62.5514 18.3085L62.7517 16.2934L62.9619 14.3281L63.0374 13.338C63.038 13.3318 63.0372 13.3256 63.0348 13.3197C63.0325 13.3138 63.0288 13.3084 63.024 13.3038C63.0192 13.2992 63.0133 13.2955 63.0067 13.293C63.0002 13.2905 62.9931 13.2892 62.986 13.2892L61.3791 13.2872H59.2719L56.9787 13.2852L54.8934 13.2872H41.6484L41.1985 13.2862C41.1888 13.2861 41.1792 13.2878 41.1703 13.2913C41.1613 13.2947 41.1532 13.2998 41.1463 13.3063C41.1395 13.3128 41.1341 13.3206 41.1304 13.3291C41.1268 13.3376 41.125 13.3467 41.1251 13.3559C41.1485 14.6674 41.1656 15.9783 41.1766 17.2885C41.1843 18.1124 41.0945 19.5205 41.1864 20.6469C41.2642 21.5952 41.1164 23.0172 41.17 24.2661C41.228 25.6373 41.0934 26.9767 41.1733 28.3648C41.2105 29.0216 41.2032 29.7994 41.1514 30.6983C41.0989 31.6277 41.2259 32.8348 41.1711 33.9662C41.1449 34.5102 41.1365 34.9848 41.1459 35.3902C41.1868 37.0831 41.1835 38.7761 41.1361 40.4691C41.1359 40.4762 41.1376 40.4833 41.1409 40.4898C41.1442 40.4963 41.1491 40.5021 41.1553 40.5067C41.1614 40.5114 41.1687 40.5148 41.1765 40.5167C41.1844 40.5186 41.1926 40.519 41.2007 40.5179L43.8924 40.1218Z" fill="#FFDD23"/>
</svg>
