<svg width="34" height="34" viewBox="0 0 34 34" fill="none" xmlns="http://www.w3.org/2000/svg">
<g clip-path="url(#clip0_1287_2153)">
<path d="M17.4633 0.5C8.35143 0.5 0.963257 7.88817 0.963257 17C0.963257 26.1118 8.35143 33.5 17.4633 33.5C26.5751 33.5 33.9633 26.1118 33.9633 17C33.9633 7.88817 26.5751 0.5 17.4633 0.5ZM25.3928 12.9376C25.4039 13.1107 25.4039 13.2912 25.4039 13.468C25.4039 18.8747 21.2862 25.1027 13.7618 25.1027C11.4415 25.1027 9.2906 24.4287 7.47855 23.2685C7.81002 23.3054 8.12676 23.3201 8.4656 23.3201C10.3808 23.3201 12.1413 22.6719 13.5445 21.5743C11.7472 21.5375 10.2371 20.3589 9.72152 18.7384C10.3513 18.8305 10.9185 18.8305 11.5667 18.6647C10.6413 18.4767 9.80945 17.9741 9.21258 17.2423C8.61571 16.5105 8.29061 15.5946 8.2925 14.6502V14.5987C8.8339 14.9044 9.47107 15.0922 10.1377 15.118C9.5773 14.7445 9.11771 14.2385 8.79969 13.6449C8.48168 13.0512 8.31505 12.3883 8.3146 11.7148C8.3146 10.9525 8.51348 10.2564 8.87074 9.65234C9.89794 10.9169 11.1797 11.9511 12.6328 12.6878C14.0859 13.4245 15.6778 13.8472 17.3049 13.9283C16.7267 11.1477 18.8039 8.89732 21.301 8.89732C22.4796 8.89732 23.5403 9.39085 24.2879 10.1864C25.2124 10.0133 26.0963 9.66708 26.8845 9.20301C26.5788 10.1496 25.9379 10.9488 25.0871 11.4533C25.9121 11.365 26.7077 11.1366 27.4443 10.8162C26.8881 11.6338 26.1921 12.3594 25.3928 12.9376Z" fill="#5D5FEF"/>
</g>
<defs>
<clipPath id="clip0_1287_2153">
<rect width="33" height="33" fill="white" transform="translate(0.963257 0.5)"/>
</clipPath>
</defs>
</svg>
